/* XPM */
static char * testGIEP8x8_xpm[] = {
"8 8 5 1",
" 	c #FFFFFF",
".	c #00FF00",
"+	c #000000",
"@	c #FFFF00",
"#	c #0000FF",
"        ",
"        ",
"  . . . ",
". . ++++",
"  +++@#+",
"    +@#+",
"    +@#+",
"    +@#+"};