/* XPM */
static char * GIEP25x25_xpm[] = {
"25 25 15 1",
" 	c #FFFFFF",
".	c #00AB00",
"+	c #003200",
"@	c #005700",
"#	c #007300",
"$	c #008F00",
"%	c #00C700",
"&	c #00E300",
"*	c #00FF00",
"=	c #FFFF00",
"-	c #000000",
";	c #FF00FF",
">	c #0000FF",
",	c #FF0000",
"'	c #6400FF",
"                         ",
"                     ....",
"       +++        .......",
"      ++++       ........",
"             ............",
"              ..         ",
"              ..         ",
"              @.         ",
"         ###  @          ",
"        ####             ",
"   $$$  ####       %%%%%%",
"  $$$$  ####&&&&   %%%%%%",
"$$$$$$      &&&&&& %%%%%%",
"$$$$$$      &&&&&&&      ",
"                         ",
"          ************   ",
" ====     ************   ",
"--=----------------------",
"--=====--------;;;;;-----",
"--=====--->>>>>>---;-----",
"--=====,,,>>>>>>---'''''-",
"--=====--->>>>>>---'''''-",
"--=====--->>>>>>---'''''-",
"---------->>>>>>---'''''-",
"-------------------------"};
