/* XPM */
static char * GIEP25x25_xpm[] = {
"25 25 8 1",
" 	c #FFFFFF",
".	c #000000",
"+	c #05FF00",
"@	c #0AFF00",
"#	c #08FF00",
"$	c #03FF00",
"%	c #FFFF00",
"&	c #0000FF",
"                         ",
"                         ",
"                         ",
"                         ",
".                        ",
".... ..                  ",
"........                 ",
"........                 ",
".....                    ",
"....                     ",
"....             +++     ",
"...              +++     ",
"..  @@         ........  ",
".. @@   ###    .      .$$",
".  @@   ###    .      .$$",
".   @.......  ..      ...",
".  ...     . ..          ",
".....      ...           ",
"..      %         &      ",
"    %%%%%    &&&&&&      ",
"    %%%%%    &&&&&&      ",
"..  %%%%%    &&&&&&      ",
"...       ..         ... ",
"...      ....       .... ",
".....  ........    ..... "};
