/* XPM */
static char * GIEP25x25_xpm[] = {
"25 25 12 1",
" 	c #FFFFFF",
".	c #08FF00",
"+	c #12FF00",
"@	c #0AFF00",
"#	c #0DFF00",
"$	c #0FFF00",
"%	c #14FF00",
"&	c #03FF00",
"*	c #05FF00",
"=	c #000000",
"-	c #FFFF00",
";	c #0000FF",
"                         ",
"                         ",
"                         ",
"                         ",
"                         ",
"                         ",
"                         ",
"                         ",
"                         ",
"..                   ++++",
".. @@@  #####            ",
"   @@@            $$$$$$ ",
"                         ",
"                         ",
"             %%%%%   &&&&",
"***          =====   &&&&",
"***-====     =====    && ",
"===-==================&&=",
"===-----==============&&=",
"===-----=======    ======",
"===-----  ;;;;;;==     ==",
"===-----==;;;;;;==     ==",
"====---===;;;;;;==     ==",
"==========;;;;;;==     ==",
"========================="};
